<?xml version="1.0" standalone="no"?>
<!DOCTYPE svg PUBLIC "-//W3C//DTD SVG 20010904//EN"
 "http://www.w3.org/TR/2001/REC-SVG-20010904/DTD/svg10.dtd">
<svg version="1.0" xmlns="http://www.w3.org/2000/svg"
 width="96.000000pt" height="96.000000pt" viewBox="0 0 96.000000 96.000000"
 preserveAspectRatio="xMidYMid meet">

<g transform="translate(0.000000,96.000000) scale(0.100000,-0.100000)"
fill="#000000" stroke="none">
<path d="M392 597 c-56 -57 -102 -110 -102 -117 0 -7 46 -60 102 -117 90 -91
106 -104 133 -101 23 2 31 9 33 27 3 19 -14 42 -79 107 l-84 84 84 84 c65 65
82 88 79 107 -2 18 -10 25 -33 27 -27 3 -43 -10 -133 -101z"/>
</g>
</svg>
