<svg xmlns="http://www.w3.org/2000/svg" xmlns:xlink="http://www.w3.org/1999/xlink" width="32px" height="32px" viewBox="0 0 32 32" preserveAspectRatio="xMinYMin meet" ><defs id="svgEditorDefs"><linearGradient gradientUnits="objectBoundingBox" id="lrgd2-e1-repeat" spreadMethod="repeat" x1="20%" x2="40%" y1="0%" y2="0%"><stop offset="0%" stop-color="lightblue"/><stop offset="100%" stop-color="#ef5b2b"/></linearGradient><linearGradient gradientTransform="rotate(90)" gradientUnits="objectBoundingBox" id="lgrd3-a" spreadMethod="repeat" x1="10%" x2="20%" y1="20%" y2="20%"><stop offset="5%" stop-color="#babc91" stop-opacity="1"/><stop offset="50%" stop-color="#c8d591" stop-opacity="1"/><stop offset="90%" stop-color="#afd591" stop-opacity="1"/></linearGradient><linearGradient gradientTransform="rotate(90)" gradientUnits="objectBoundingBox" id="lgrd4-a" spreadMethod="repeat" x1="0%" x2="15%" y1="0%" y2="5%"><stop offset="5%" stop-color="#e20709" stop-opacity="0.8"/><stop offset="30%" stop-color="#9ad346" stop-opacity="1"/><stop offset="60%" stop-color="#bcd346" stop-opacity="0.8"/><stop offset="90%" stop-color="#e20709" stop-opacity="0.8"/></linearGradient><linearGradient gradientUnits="objectBoundingBox" id="lgrd2-fire" spreadMethod="pad" x1="0%" x2="100%" y1="0%" y2="0%"><stop offset="0%" style="stop-color:rgb(255,255,0);stop-opacity:1"/><stop offset="100%" style="stop-color:rgb(255,0,0);stop-opacity:1"/></linearGradient></defs><rect id="svgEditorBackground" x="0" y="0" width="1000" height="640" style="fill: none; stroke: none;"/><path d="M352.100345,342.574514q5.508433,21.558433,26.333166,20.808622" style="fill:none;stroke:#33BC6A;stroke-width:5px;stroke-linecap:butt;stroke-linejoin:miter" id="e4_arc2" transform="matrix(0.193691 0 0 0.193691 -64.0009 -41.8876)"/><path d="M373.911269,363.386h174.545" style="fill:none;stroke:#33BC6A;stroke-width:5px;stroke-linecap:butt;stroke-linejoin:miter" id="e7_pathH" transform="matrix(0.080488 0 0 0.193691 -21.0758 -41.8876)"/><path d="M261.316647,342.574514q5.508433,21.558433,26.333166,20.808622" style="fill:none;stroke:#33BC6A;stroke-width:5px;stroke-linecap:butt;stroke-linejoin:miter" id="e3_arc2" transform="matrix(-0.193691 0 0 0.193691 78.4686 -41.8876)"/><line id="e8_line" x1="352.8213166144201" y1="345.07836990595615" x2="334.516" y2="279.88" style="stroke:#33BC6A;fill:none;stroke-width:5px;stroke-linecap:butt;stroke-linejoin:miter" transform="matrix(0.193691 0 0 0.193691 -64.0009 -41.8876)"/><path d="M213.111422,265.831h201.129" style="fill:none;stroke:#33BC6A;stroke-width:5px;stroke-linecap:butt;stroke-linejoin:miter" id="e10_pathH" transform="matrix(0.144187 0 0 0.193691 -29.1356 -41.8876)"/><path d="M335.297837,282.887993q-5.275266,-17.062256,4.514984,-17.059716" style="fill:none;stroke:#33BC6A;stroke-width:5px;stroke-linecap:butt;stroke-linejoin:miter" id="e5_arc2" transform="matrix(0.193691 0 0 0.193691 -64.0009 -41.8876)"/><path d="M192.351129,282.887993q-5.275266,-17.062256,4.514984,-17.059716" style="fill:none;stroke:#33BC6A;stroke-width:5px;stroke-linecap:butt;stroke-linejoin:miter" id="e1_arc2" transform="matrix(-0.193691 0 0 0.193691 68.3473 -41.8876)"/><line id="e3_line" x1="356.834000" y1="350.596000" x2="338.529000" y2="285.397000" style="stroke:#33BC6A;fill:none;stroke-width:5px;stroke-linecap:butt;stroke-linejoin:miter" transform="matrix(-0.193691 0 0 0.193691 96.7207 -42.5676)"/><line id="e11_line" x1="384.7519030914785" y1="264.5251159667969" x2="398.03788331608786" y2="232.6750030517578" style="stroke:#33BC6A;fill:none;stroke-width:5px;stroke-linecap:round;stroke-linejoin:miter" transform="matrix(0.193691 0 0 0.193691 -64.0009 -41.8876)"/><line id="e1_line" x1="390.2690844879629" y1="265.5282897949219" x2="403.5550647125723" y2="233.67813110351562" style="stroke:#33BC6A;fill:none;stroke-width:5px;stroke-linecap:round;stroke-linejoin:miter" transform="matrix(-0.193691 0 0 0.193691 97.2364 -42.0333)"/><path d="M407.573,283.836h12.288" style="fill:none;stroke:#33BC6A;stroke-width:5px;stroke-linecap:round;stroke-linejoin:miter" id="e13_pathH" transform="matrix(0.193691 0 0 0.193691 -64.0009 -41.8876)"/><path d="M406.8212693981191,283.8357836018809v63.448" style="fill:none;stroke:#33BC6A;stroke-width:5px;stroke-linecap:round;stroke-linejoin:miter" id="e15_pathV" transform="matrix(0.193691 0 0 0.193691 -64.0009 -41.8876)"/><path d="M406.82064879623823,347.53505937931016h12.288" style="fill:none;stroke:#33BC6A;stroke-width:5px;stroke-linecap:round;stroke-linejoin:miter" id="e6_pathH" transform="matrix(0.193691 0 0 0.193691 -64.0009 -41.8876)"/><path d="M420.1128053981191,284.086567v63.448" style="fill:none;stroke:#33BC6A;stroke-width:5px;stroke-linecap:round;stroke-linejoin:miter" id="e1_pathV" transform="matrix(0.193691 0 0 0.193691 -64.0009 -41.8876)"/><g id="e18_group" transform="matrix(0.193691 0 0 0.196571 -65.361 -43.0436)" style="fill:none;stroke:#33BC6A"><line id="e17_line" x1="445.6935839996816" y1="348.2829895019531" x2="463.24756959538473" y2="285.8399963378906" style="stroke:#33BC6A;fill:none;stroke-width:5px;stroke-linecap:round;stroke-linejoin:miter"/><line id="e2_line" x1="458.23258546452536" y1="348.2829895019531" x2="475.7865710602285" y2="285.8399963378906" style="stroke:#33BC6A;fill:none;stroke-width:5px;stroke-linecap:round;stroke-linejoin:miter"/><path d="M463.2469809811911,285.84227h12.288" style="fill:none;stroke:#33BC6A;stroke-width:5px;stroke-linecap:round;stroke-linejoin:miter" id="e1_pathH"/><path d="M445.9429059811911,348.287411h12.288" style="fill:none;stroke:#33BC6A;stroke-width:5px;stroke-linecap:round;stroke-linejoin:miter" id="e4_pathH"/></g><g id="e16_group" transform="matrix(-0.193691 0 0 0.196571 97.3835 -43.0436)" style="fill:none;stroke:#33BC6A"><line id="e16_line" x1="445.6935839996816" y1="348.2829895019531" x2="463.24756959538473" y2="285.8399963378906" style="stroke:#33BC6A;fill:none;stroke-width:5px;stroke-linecap:round;stroke-linejoin:miter"/><line id="e19_line" x1="458.23258546452536" y1="348.2829895019531" x2="475.7865710602285" y2="285.8399963378906" style="stroke:#33BC6A;fill:none;stroke-width:5px;stroke-linecap:round;stroke-linejoin:miter"/><path d="M463.2469809811911,285.84227h12.288" style="fill:none;stroke:#33BC6A;stroke-width:5px;stroke-linecap:round;stroke-linejoin:miter" id="e19_pathH"/><path d="M445.9429059811911,348.287411h12.288" style="fill:none;stroke:#33BC6A;stroke-width:5px;stroke-linecap:round;stroke-linejoin:miter" id="e20_pathH"/></g></svg>